<?xml version="1.0" encoding="iso-8859-1"?>
<!-- Uploaded to: SVG Repo, www.svgrepo.com, Generator: SVG Repo Mixer Tools -->
<svg fill="#000000" height="800px" width="800px" version="1.1" id="Layer_1" xmlns="http://www.w3.org/2000/svg" xmlns:xlink="http://www.w3.org/1999/xlink" 
	 viewBox="0 0 512 512" xml:space="preserve">
<g>
	<g>
		<g>
			<path d="M85.344,405.333c23.573,0,42.667-19.093,42.667-42.667c0-23.573-19.093-42.667-42.667-42.667
				c-23.573,0-42.667,19.093-42.667,42.667C42.677,386.24,61.771,405.333,85.344,405.333z"/>
			<path d="M84.608,426.667c-35.968,0-63.275,26.645-63.275,42.667v25.771c0,9.344,7.573,16.896,16.896,16.896h93.781
				c9.216,0,16.725-7.381,16.875-16.597l0.448-26.069C149.333,453.312,120.576,426.667,84.608,426.667z"/>
			<path d="M213.344,362.667c0,23.573,19.093,42.667,42.667,42.667s42.667-19.093,42.667-42.667
				c0-23.573-19.093-42.667-42.667-42.667S213.344,339.093,213.344,362.667z"/>
			<path d="M255.275,426.667c-35.968,0-63.275,26.645-63.275,42.667v25.771c0,9.344,7.573,16.896,16.896,16.896h93.781
				c9.216,0,16.725-7.381,16.875-16.597L320,469.333C320,453.312,291.243,426.667,255.275,426.667z"/>
			<path d="M384.011,362.667c0,23.573,19.093,42.667,42.667,42.667c23.573,0,42.667-19.093,42.667-42.667
				c0-23.573-19.093-42.667-42.667-42.667C403.104,320,384.011,339.093,384.011,362.667z"/>
			<path d="M425.941,426.667c-35.968,0-63.275,26.645-63.275,42.667v25.771c0,9.344,7.573,16.896,16.896,16.896h93.781
				c9.216,0,16.725-7.381,16.875-16.597l0.448-26.069C490.667,453.312,461.909,426.667,425.941,426.667z"/>
			<path d="M86.08,277.333c11.782,0,21.333-9.551,21.333-21.333v-21.333h127.264V256c0,11.782,9.551,21.333,21.333,21.333
				c11.782,0,21.333-9.551,21.333-21.333v-21.333h128.011V256c0,11.782,9.551,21.333,21.333,21.333
				c11.782,0,21.333-9.551,21.333-21.333v-42.667c0-11.782-9.551-21.333-21.333-21.333H277.344v-21.333h64
				c47.131,0,85.333-38.202,85.333-85.333S388.475,0,341.344,0H170.677c-47.131,0-85.333,38.202-85.333,85.333
				s38.202,85.333,85.333,85.333h64V192H86.08c-11.782,0-21.333,9.551-21.333,21.333V256
				C64.747,267.782,74.298,277.333,86.08,277.333z M128.011,85.333c0-23.567,19.099-42.667,42.667-42.667h170.667
				c23.567,0,42.667,19.099,42.667,42.667S364.911,128,341.344,128H170.677C147.11,128,128.011,108.901,128.011,85.333z"/>
			<polygon points="202.483,83.413 183.305,83.413 183.305,64 175.987,64 175.987,108.288 183.305,108.288 183.305,88.341 
				202.483,88.341 202.483,108.288 209.694,108.288 209.694,64 202.483,64 			"/>
			<polygon points="218.415,68.928 231.62,68.928 231.62,108.288 238.895,108.288 238.895,68.928 252.122,68.928 252.122,64 
				218.415,64 			"/>
			<polygon points="277.297,108.288 284.572,108.288 284.572,68.928 297.798,68.928 297.798,64 264.092,64 264.092,68.928 
				277.297,68.928 			"/>
			<path d="M319.492,90.671h5.355c2.325,0,4.437-0.32,6.357-1.003s3.563-1.643,4.928-2.901c1.365-1.237,2.432-2.773,3.2-4.587
				c0.747-1.835,1.131-3.861,1.131-6.101c0-2.133-0.448-4.032-1.344-5.739s-2.091-3.157-3.541-4.352
				c-1.472-1.216-3.136-2.112-4.971-2.709s-3.712-0.896-5.589-0.896h-12.736v44.288h7.211V90.671z M319.492,67.844h5.419
				c1.835,0,3.307,0.299,4.437,0.875c1.109,0.576,1.984,1.301,2.624,2.155c0.619,0.875,1.024,1.771,1.216,2.709
				c0.213,0.939,0.299,1.771,0.299,2.496c0,1.792-0.213,3.307-0.661,4.544c-0.427,1.216-1.024,2.155-1.728,2.837
				c-0.725,0.683-1.515,1.173-2.389,1.472c-0.853,0.32-1.728,0.469-2.603,0.469h-6.613V67.844z"/>
		</g>
	</g>
</g>
</svg>